<svg xmlns="http://www.w3.org/2000/svg" width="189" height="48" viewBox="0 0 189 48" fill="none"><path d="M9.3188 21.3185C9.3188 23.3662 10.9788 25.0268 13.0271 25.0268H17.9871C19.4639 25.0268 20.8107 24.7122 22.0286 24.0817C23.2439 23.4518 24.2116 22.5398 24.9278 21.3438C25.6453 20.1497 26.0037 18.7048 26.0037 17.0103C26.0037 15.3157 25.6453 13.8721 24.9278 12.6761C24.2116 11.4814 23.2439 10.5694 22.0286 9.93886C20.8107 9.30964 19.4639 8.9937 17.9871 8.9937H13.0271C10.9788 8.9937 9.3188 10.6537 9.3188 12.702V21.3185ZM0 42.6954V4.49028C0 2.44201 1.65999 0.782011 3.70827 0.782011H19.0956C22.093 0.782011 24.8196 1.46632 27.2747 2.83494C29.7286 4.20421 31.6839 6.10448 33.1408 8.53772C34.5957 10.9716 35.3238 13.7951 35.3238 17.0103C35.3238 20.1822 34.5957 22.9958 33.1408 25.4503C31.6839 27.9054 29.7286 29.817 27.2747 31.1856C24.8196 32.5542 22.093 33.2385 19.0956 33.2385H13.0271C10.9788 33.2385 9.3188 34.8985 9.3188 36.9461V42.6954C9.3188 44.743 7.6588 46.4036 5.61053 46.4036H3.70827C1.65999 46.4036 0 44.743 0 42.6954Z" fill="#EE7A5F"></path><path d="M56.1437 38.9737C57.5787 38.9737 58.8816 38.6378 60.0544 37.9635C61.2272 37.2904 62.173 36.3891 62.8892 35.2588C63.6067 34.1291 63.9657 32.8912 63.9657 31.5439V15.6415C63.9657 14.2516 63.6067 13.0018 62.8892 11.8941C62.173 10.7856 61.2272 9.89557 60.0544 9.22188C58.8816 8.54886 57.5787 8.21168 56.1437 8.21168C54.71 8.21168 53.3845 8.54886 52.1679 9.22188C50.952 9.89557 49.9849 10.7856 49.2687 11.8941C48.5512 13.0018 48.1928 14.2516 48.1928 15.6415V31.5439C48.1928 32.8912 48.5512 34.1291 49.2687 35.2588C49.9849 36.3891 50.952 37.2904 52.1679 37.9635C53.3845 38.6378 54.71 38.9737 56.1437 38.9737ZM56.1437 47.1854C52.8423 47.1854 49.888 46.4685 47.2802 45.0349C44.6737 43.6005 42.6208 41.6571 41.1214 39.2013C39.622 36.7475 38.874 33.999 38.874 30.9578V16.2276C38.874 13.1877 39.622 10.4392 41.1214 7.98402C42.6208 5.52954 44.6737 3.58481 47.2802 2.15048C49.888 0.71682 52.8423 -1.37971e-05 56.1437 -1.37971e-05C59.4033 -1.37971e-05 62.325 0.71682 64.9102 2.15048C67.4941 3.58481 69.5371 5.52954 71.0365 7.98402C72.5359 10.4392 73.2845 13.1877 73.2845 16.2276V30.9578C73.2845 33.999 72.5359 36.7475 71.0365 39.2013C69.5371 41.6571 67.4941 43.6005 64.9102 45.0349C62.325 46.4685 59.4033 47.1854 56.1437 47.1854Z" fill="#E0EBC7"></path><path d="M109.388 47.1203C90.2643 47.4568 97.6496 22.3982 95.3445 10.8241C95.2827 10.5135 95.1752 10.2128 94.9947 9.95194C92.7612 6.72886 87.1779 8.41474 87.2934 12.5133C87.2934 12.5133 87.2934 35.7864 87.2934 43.7605C87.2934 45.2227 86.108 46.4034 84.6458 46.4034H80.7643C79.2881 46.4034 78.0967 45.2027 78.1167 43.7273C78.2414 34.6182 76.687 10.4663 79.6685 6.77731C84.213 -2.21361 98.922 -2.20099 103.457 6.77864C106.507 11.0418 104.679 20.0685 105.135 25.1341C105.065 30.7002 113.801 31.0599 113.742 25.4946C114.194 20.3241 112.325 11.136 115.383 6.77797C119.939 -2.17511 134.659 -2.23949 139.172 6.77864C142.167 10.317 140.661 34.6746 140.743 43.7386C140.756 45.21 139.567 46.4034 138.095 46.4034H134.195C132.732 46.4034 131.546 45.218 131.546 43.7558V12.5133C131.714 8.39217 126.077 6.73284 123.847 9.95127C123.666 10.2134 123.558 10.5148 123.497 10.8274C121.215 22.4241 128.535 47.4793 109.388 47.1203Z" fill="#EE7A5F"></path><path d="M161.797 29.3178C164.37 28.7988 174.035 31.228 172.541 25.7762L167.257 10.2641C167.006 9.1271 165.145 9.22998 164.89 10.3364L159.249 25.731C158.638 27.4853 159.94 29.3178 161.797 29.3178ZM146.091 46.7189C144.215 46.7189 142.912 44.8531 143.557 43.0916L157.087 6.18145C158.493 2.30526 161.965 0.31805 165.95 0.316059C169.919 0.335307 173.502 2.1307 174.814 6.11641L188.404 43.0896C189.052 44.8512 187.748 46.7189 185.872 46.7189C183.89 46.4879 179.597 47.6083 178.891 44.8737C177.916 43.0139 177.547 37.2819 174.498 37.5295H157.115C155.966 37.5295 154.944 38.257 154.567 39.3422C152.442 44.9998 153.375 47.459 146.091 46.7189Z" fill="#EE7A5F"></path><path d="M42.4795 37.5054L68.8841 8.21156Z" fill="#E0EBC7"></path><path d="M42.4795 37.5054L68.8841 8.21156" stroke="#E0EBC7" stroke-width="8" stroke-miterlimit="10"></path></svg>
